#Comment line ignore any data following # character 
#Hierarchical Translation and Rotation (.htr) file 
[Header]	
#Header keywords are followed by a single value 
FileType HTR		#Single word string
DataType HTRS		#Translation followed by rotation and scale data
FileVersion 1		#integer
NumSegments 84		#integer
NumFrames 2		#integer
DataFrameRate 30		#integer, data frame rate in this file
EulerRotationOrder ZYX
CalibrationUnits mm
RotationUnits Degrees
GlobalAxisofGravity Y
BoneLengthAxis Y
ScaleFactor 1.00
[SegmentNames&Hierarchy]
#CHILD	PARENT
MASTER GLOBAL
root MASTER
chest root
L_mid_tent01 root
R_mid_tent01 root
spine01 root
Bip01_Neck chest
L_humerus chest
R_humerus chest
weapon_bone chest
Bip01_Head Bip01_Neck
eye_left_bone Bip01_Head
eye_right_bone Bip01_Head
L_forearm L_humerus
L_front_hand L_forearm
L_weapon_bone L_forearm
L_front_hand01_01 L_front_hand
L_front_hand02_01 L_front_hand
L_front_hand03_01 L_front_hand
L_front_hand01_02 L_front_hand01_01
L_front_hand02_02 L_front_hand02_01
L_front_hand03_02 L_front_hand03_01
R_forearm R_humerus
R_front_hand R_forearm
R_weapon_bone R_forearm
R_front_hand01_01 R_front_hand
R_front_hand02_01 R_front_hand
R_front_hand03_01 R_front_hand
R_front_hand01_02 R_front_hand01_01
R_front_hand02_02 R_front_hand02_01
R_front_hand03_02 R_front_hand03_01
null_rope01_connect L_mid_tent01
Rope1_Seg01 null_rope01_connect
Rope1_Seg02 Rope1_Seg01
Rope1_Seg03 Rope1_Seg02
Rope1_Seg04 Rope1_Seg03
Rope1_Seg05 Rope1_Seg04
Rope1_Seg06 Rope1_Seg05
Rope1_Seg07 Rope1_Seg06
Rope1_Seg09 Rope1_Seg07
L_mid_hand01 Rope1_Seg09
L_mid_hand02 Rope1_Seg09
L_mid_hand03 Rope1_Seg09
null_rope02_connect R_mid_tent01
Rope2_Seg01 null_rope02_connect
Rope2_Seg02 Rope2_Seg01
Rope2_Seg03 Rope2_Seg02
Rope2_Seg04 Rope2_Seg03
Rope2_Seg05 Rope2_Seg04
Rope2_Seg06 Rope2_Seg05
Rope2_Seg07 Rope2_Seg06
Rope2_Seg09 Rope2_Seg07
R_mid_hand01 Rope2_Seg09
R_mid_hand02 Rope2_Seg09
R_mid_hand03 Rope2_Seg09
spine02 spine01
spine03 spine02
pelvis spine03
null_rope03_connect pelvis
null_rope04_connect pelvis
Rope3_Seg01 null_rope03_connect
Rope3_Seg02 Rope3_Seg01
Rope3_Seg03 Rope3_Seg02
Rope3_Seg04 Rope3_Seg03
Rope3_Seg05 Rope3_Seg04
Rope3_Seg06 Rope3_Seg05
Rope3_Seg07 Rope3_Seg06
Rope3_Seg08 Rope3_Seg07
Rope3_Seg09 Rope3_Seg08
R_rear_hand01 Rope3_Seg09
R_rear_hand02 Rope3_Seg09
R_rear_hand03 Rope3_Seg09
Rope4_Seg01 null_rope04_connect
Rope4_Seg02 Rope4_Seg01
Rope4_Seg03 Rope4_Seg02
Rope4_Seg04 Rope4_Seg03
Rope4_Seg05 Rope4_Seg04
Rope4_Seg06 Rope4_Seg05
Rope4_Seg07 Rope4_Seg06
Rope4_Seg08 Rope4_Seg07
Rope4_Seg09 Rope4_Seg08
L_rear_hand01 Rope4_Seg09
L_rear_hand02 Rope4_Seg09
L_rear_hand03 Rope4_Seg09
[BasePosition]
#SegmentName Tx, Ty, Tz, Rx, Ry, Rz, BoneLength
MASTER 0.000000 0.000000 0.000000 -90.000000 0.000000 0.000000 10.000000 
root 0.000000 0.000000 0.000000 0.000000 0.000000 0.000000 10.000000 
chest 0.000000 0.000000 0.000000 0.000000 0.000000 0.000000 10.000000 
L_mid_tent01 0.000000 0.000000 0.000000 0.000000 0.000000 0.000000 10.000000 
R_mid_tent01 0.000000 0.000000 0.000000 0.000000 0.000000 0.000000 10.000000 
spine01 0.000000 0.000000 0.000000 0.000000 0.000000 0.000000 10.000000 
Bip01_Neck 0.000000 0.000000 0.000000 0.000000 0.000000 0.000000 10.000000 
L_humerus 0.000000 0.000000 0.000000 0.000000 0.000000 0.000000 10.000000 
R_humerus 0.000000 0.000000 0.000000 0.000000 0.000000 0.000000 10.000000 
weapon_bone 0.000000 0.000000 0.000000 0.000000 0.000000 0.000000 10.000000 
Bip01_Head 0.000000 0.000000 0.000000 0.000000 0.000000 0.000000 10.000000 
eye_left_bone 0.000000 0.000000 0.000000 0.000000 0.000000 0.000000 10.000000 
eye_right_bone 0.000000 0.000000 0.000000 0.000000 0.000000 0.000000 10.000000 
L_forearm 0.000000 0.000000 0.000000 0.000000 0.000000 0.000000 10.000000 
L_front_hand 0.000000 0.000000 0.000000 0.000000 0.000000 0.000000 10.000000 
L_weapon_bone 0.000000 0.000000 0.000000 0.000000 0.000000 0.000000 10.000000 
L_front_hand01_01 0.000000 0.000000 0.000000 0.000000 0.000000 0.000000 10.000000 
L_front_hand02_01 0.000000 0.000000 0.000000 0.000000 0.000000 0.000000 10.000000 
L_front_hand03_01 0.000000 0.000000 0.000000 0.000000 0.000000 0.000000 10.000000 
L_front_hand01_02 0.000000 0.000000 0.000000 0.000000 0.000000 0.000000 10.000000 
L_front_hand02_02 0.000000 0.000000 0.000000 0.000000 0.000000 0.000000 10.000000 
L_front_hand03_02 0.000000 0.000000 0.000000 0.000000 0.000000 0.000000 10.000000 
R_forearm 0.000000 0.000000 0.000000 0.000000 0.000000 0.000000 10.000000 
R_front_hand 0.000000 0.000000 0.000000 0.000000 0.000000 0.000000 10.000000 
R_weapon_bone 0.000000 0.000000 0.000000 0.000000 0.000000 0.000000 10.000000 
R_front_hand01_01 0.000000 0.000000 0.000000 0.000000 0.000000 0.000000 10.000000 
R_front_hand02_01 0.000000 0.000000 0.000000 0.000000 0.000000 0.000000 10.000000 
R_front_hand03_01 0.000000 0.000000 0.000000 0.000000 0.000000 0.000000 10.000000 
R_front_hand01_02 0.000000 0.000000 0.000000 0.000000 0.000000 0.000000 10.000000 
R_front_hand02_02 0.000000 0.000000 0.000000 0.000000 0.000000 0.000000 10.000000 
R_front_hand03_02 0.000000 0.000000 0.000000 0.000000 0.000000 0.000000 10.000000 
null_rope01_connect 0.000000 0.000000 0.000000 0.000000 0.000000 0.000000 10.000000 
Rope1_Seg01 0.000000 0.000000 0.000000 0.000000 0.000000 0.000000 10.000000 
Rope1_Seg02 0.000000 0.000000 0.000000 0.000000 0.000000 0.000000 10.000000 
Rope1_Seg03 0.000000 0.000000 0.000000 0.000000 0.000000 0.000000 10.000000 
Rope1_Seg04 0.000000 0.000000 0.000000 0.000000 0.000000 0.000000 10.000000 
Rope1_Seg05 0.000000 0.000000 0.000000 0.000000 0.000000 0.000000 10.000000 
Rope1_Seg06 0.000000 0.000000 0.000000 0.000000 0.000000 0.000000 10.000000 
Rope1_Seg07 0.000000 0.000000 0.000000 0.000000 0.000000 0.000000 10.000000 
Rope1_Seg09 0.000000 0.000000 0.000000 0.000000 0.000000 0.000000 10.000000 
L_mid_hand01 0.000000 0.000000 0.000000 0.000000 0.000000 0.000000 10.000000 
L_mid_hand02 0.000000 0.000000 0.000000 0.000000 0.000000 0.000000 10.000000 
L_mid_hand03 0.000000 0.000000 0.000000 0.000000 0.000000 0.000000 10.000000 
null_rope02_connect 0.000000 0.000000 0.000000 0.000000 0.000000 0.000000 10.000000 
Rope2_Seg01 0.000000 0.000000 0.000000 0.000000 0.000000 0.000000 10.000000 
Rope2_Seg02 0.000000 0.000000 0.000000 0.000000 0.000000 0.000000 10.000000 
Rope2_Seg03 0.000000 0.000000 0.000000 0.000000 0.000000 0.000000 10.000000 
Rope2_Seg04 0.000000 0.000000 0.000000 0.000000 0.000000 0.000000 10.000000 
Rope2_Seg05 0.000000 0.000000 0.000000 0.000000 0.000000 0.000000 10.000000 
Rope2_Seg06 0.000000 0.000000 0.000000 0.000000 0.000000 0.000000 10.000000 
Rope2_Seg07 0.000000 0.000000 0.000000 0.000000 0.000000 0.000000 10.000000 
Rope2_Seg09 0.000000 0.000000 0.000000 0.000000 0.000000 0.000000 10.000000 
R_mid_hand01 0.000000 0.000000 0.000000 0.000000 0.000000 0.000000 10.000000 
R_mid_hand02 0.000000 0.000000 0.000000 0.000000 0.000000 0.000000 10.000000 
R_mid_hand03 0.000000 0.000000 0.000000 0.000000 0.000000 0.000000 10.000000 
spine02 0.000000 0.000000 0.000000 0.000000 0.000000 0.000000 10.000000 
spine03 0.000000 0.000000 0.000000 0.000000 0.000000 0.000000 10.000000 
pelvis 0.000000 0.000000 0.000000 0.000000 0.000000 0.000000 10.000000 
null_rope03_connect 0.000000 0.000000 0.000000 0.000000 0.000000 0.000000 10.000000 
null_rope04_connect 0.000000 0.000000 0.000000 0.000000 0.000000 0.000000 10.000000 
Rope3_Seg01 0.000000 0.000000 0.000000 0.000000 0.000000 0.000000 10.000000 
Rope3_Seg02 0.000000 0.000000 0.000000 0.000000 0.000000 0.000000 10.000000 
Rope3_Seg03 0.000000 0.000000 0.000000 0.000000 0.000000 0.000000 10.000000 
Rope3_Seg04 0.000000 0.000000 0.000000 0.000000 0.000000 0.000000 10.000000 
Rope3_Seg05 0.000000 0.000000 0.000000 0.000000 0.000000 0.000000 10.000000 
Rope3_Seg06 0.000000 0.000000 0.000000 0.000000 0.000000 0.000000 10.000000 
Rope3_Seg07 0.000000 0.000000 0.000000 0.000000 0.000000 0.000000 10.000000 
Rope3_Seg08 0.000000 0.000000 0.000000 0.000000 0.000000 0.000000 10.000000 
Rope3_Seg09 0.000000 0.000000 0.000000 0.000000 0.000000 0.000000 10.000000 
R_rear_hand01 0.000000 0.000000 0.000000 0.000000 0.000000 0.000000 10.000000 
R_rear_hand02 0.000000 0.000000 0.000000 0.000000 0.000000 0.000000 10.000000 
R_rear_hand03 0.000000 0.000000 0.000000 0.000000 0.000000 0.000000 10.000000 
Rope4_Seg01 0.000000 0.000000 0.000000 0.000000 0.000000 0.000000 10.000000 
Rope4_Seg02 0.000000 0.000000 0.000000 0.000000 0.000000 0.000000 10.000000 
Rope4_Seg03 0.000000 0.000000 0.000000 0.000000 0.000000 0.000000 10.000000 
Rope4_Seg04 0.000000 0.000000 0.000000 0.000000 0.000000 0.000000 10.000000 
Rope4_Seg05 0.000000 0.000000 0.000000 0.000000 0.000000 0.000000 10.000000 
Rope4_Seg06 0.000000 0.000000 0.000000 0.000000 0.000000 0.000000 10.000000 
Rope4_Seg07 0.000000 0.000000 0.000000 0.000000 0.000000 0.000000 10.000000 
Rope4_Seg08 0.000000 0.000000 0.000000 0.000000 0.000000 0.000000 10.000000 
Rope4_Seg09 0.000000 0.000000 0.000000 0.000000 0.000000 0.000000 10.000000 
L_rear_hand01 0.000000 0.000000 0.000000 0.000000 0.000000 0.000000 10.000000 
L_rear_hand02 0.000000 0.000000 0.000000 0.000000 0.000000 0.000000 10.000000 
L_rear_hand03 0.000000 0.000000 0.000000 0.000000 0.000000 0.000000 10.000000 
#Beginning of Data. Separated by tabs
#Fr	Tx	Ty	Tz	Rx	Ry	Rz	SF
[MASTER]
28 0.000000 0.000000 0.000000 0.001660 0.001660 0.001660 0.000000
29 0.000000 0.000000 0.000000 0.001660 0.001660 0.001660 0.000000
[root]
28 249.963440 3.575567 1453.244507 -79.374847 -16.092110 -85.430168 1474.589600
29 207.712341 4.980042 1452.262085 -80.667778 -15.160847 -85.627312 1467.049561
[chest]
28 -84.512650 -34.090519 0.000000 1.805196 1.354735 168.126373 91.129311
29 -84.512650 -34.090519 0.000000 1.332078 1.209039 167.498123 91.129311
[L_mid_tent01]
28 27.299131 22.179060 -249.918610 -16.883047 22.946930 30.777758 252.381592
29 27.299126 22.179081 -249.918610 -17.493231 21.796400 28.702364 252.381592
[R_mid_tent01]
28 23.228794 24.509907 226.238495 -176.103302 -24.685268 45.292446 228.744751
29 23.228794 24.509907 226.238495 -174.744308 -24.133436 42.826534 228.744751
[spine01]
28 -0.361383 -0.195265 0.000000 0.001937 0.001327 21.182642 0.410763
29 -0.361383 -0.195265 0.000000 0.001938 0.001325 21.279224 0.410763
[Bip01_Neck]
28 165.484543 71.581718 0.000119 176.643677 -1.657967 43.431911 180.302734
29 165.484543 71.581718 0.000119 176.643677 -1.657967 43.431911 180.302734
[L_humerus]
28 -13.983130 -135.272980 -120.471481 136.808746 70.245888 -160.997635 181.680161
29 -13.983130 -135.272980 -120.471481 128.009262 73.917198 -166.433350 181.680161
[R_humerus]
28 -13.983309 -135.273102 125.287651 -152.574768 -66.045158 -134.536743 184.909012
29 -13.983309 -135.273102 125.287651 -149.810806 -71.166756 -134.646393 184.909012
[weapon_bone]
28 235.964890 -300.705902 0.000000 0.000000 -89.951546 -128.212341 382.234833
29 235.964890 -300.705902 0.000000 0.000000 -89.951546 -128.212341 382.234833
[Bip01_Head]
28 213.444168 185.715530 11.776931 4.962490 2.797846 -43.898743 283.173737
29 213.444168 185.715530 11.776932 4.962490 2.797846 -43.898743 283.173737
[eye_left_bone]
28 -24.626970 125.451866 -64.772606 0.000000 -90.000000 -99.840431 143.318359
29 -24.626970 125.451866 -64.772606 0.000000 -90.000000 -99.840431 143.318359
[eye_right_bone]
28 -24.626970 125.451866 64.327362 0.000000 -89.965736 80.156380 143.117676
29 -24.626970 125.451866 64.327362 0.000000 -89.965736 80.156380 143.117676
[L_forearm]
28 322.776093 0.000000 -0.000119 0.000568 -0.002277 -118.027542 322.776093
29 322.776093 0.000000 -0.000119 0.000614 -0.002266 -120.310066 322.776093
[L_front_hand]
28 241.149185 -0.042021 -3.300071 149.893951 -1.837326 -27.423067 241.171753
29 241.149185 -0.042021 -3.300071 149.893951 -1.837326 -27.423067 241.171753
[L_weapon_bone]
28 156.183838 0.000000 0.000000 0.000014 0.000007 0.000001 156.183838
29 156.183838 0.000000 0.000000 0.000014 0.000007 0.000001 156.183838
[L_front_hand01_01]
28 86.095154 20.947098 -0.655860 -0.366594 -0.477154 75.385574 88.609184
29 86.095154 20.947098 -0.655860 -0.366594 -0.477154 75.385574 88.609184
[L_front_hand02_01]
28 86.935165 -11.437475 24.513514 154.399796 -59.883835 -61.369587 91.046425
29 86.935165 -11.437475 24.513514 154.399796 -59.883835 -61.369587 91.046425
[L_front_hand03_01]
28 86.637497 -14.123976 -20.424902 -153.913849 58.118130 -62.702866 90.126129
29 86.637497 -14.123976 -20.424902 -153.913849 58.118122 -62.702866 90.126129
[L_front_hand01_02]
28 71.020905 -0.000179 0.000030 0.000334 -0.002323 -106.379684 71.020905
29 71.020905 -0.000179 0.000030 0.000334 -0.002323 -106.379684 71.020905
[L_front_hand02_02]
28 71.020927 -0.000119 0.000060 0.000334 -0.002323 -106.379684 71.020927
29 71.020927 -0.000119 0.000060 0.000334 -0.002323 -106.379684 71.020927
[L_front_hand03_02]
28 71.020905 -0.000060 0.000060 0.000334 -0.002323 -106.379684 71.020905
29 71.020905 -0.000060 0.000060 0.000334 -0.002323 -106.379684 71.020905
[R_forearm]
28 322.776428 -0.000060 0.000030 0.200396 0.070231 -110.951576 322.776428
29 322.776428 -0.000060 0.000030 0.197001 0.082383 -114.003418 322.776428
[R_front_hand]
28 238.847015 -0.006795 2.210259 -8.879457 -10.642941 -26.315098 238.857239
29 238.847015 -0.006795 2.210259 -8.879457 -10.642941 -26.315098 238.857239
[R_weapon_bone]
28 155.664093 0.002503 -0.000030 0.003487 0.001180 -90.988930 155.664078
29 155.664093 0.002503 -0.000030 0.003487 0.001180 -90.988930 155.664078
[R_front_hand01_01]
28 87.624611 14.231146 22.918642 -154.633499 -59.950619 61.746044 91.683487
29 87.624611 14.231146 22.918642 -154.633499 -59.950634 61.746063 91.683487
[R_front_hand02_01]
28 89.356956 14.367283 -19.491137 154.602661 58.302849 63.744389 92.579636
29 89.356956 14.367283 -19.491137 154.602661 58.302849 63.744389 92.579636
[R_front_hand03_01]
28 87.286232 -22.307278 -0.143439 0.162155 -0.423168 -75.767921 90.091743
29 87.286232 -22.307278 -0.143439 0.162155 -0.423168 -75.767921 90.091743
[R_front_hand01_02]
28 71.020905 0.000060 0.000119 0.002323 -0.000334 106.381714 71.020905
29 71.020905 0.000060 0.000119 0.002323 -0.000334 106.381714 71.020905
[R_front_hand02_02]
28 71.020844 -0.000030 -0.000119 0.002323 -0.000334 106.381714 71.020836
29 71.020844 -0.000030 -0.000119 0.002323 -0.000334 106.381714 71.020836
[R_front_hand03_02]
28 71.020905 0.000000 0.000030 0.002323 -0.000334 106.381714 71.020905
29 71.020905 0.000000 0.000030 0.002323 -0.000334 106.381714 71.020905
[null_rope01_connect]
28 328.732483 0.000000 -0.000238 -142.309479 -74.444962 -146.289871 328.732483
29 328.732483 0.000000 -0.000238 -144.928421 -73.598419 -142.304855 328.732483
[Rope1_Seg01]
28 0.000048 -0.000045 0.000114 -60.101295 35.397144 -93.632347 0.000132
29 0.000051 -0.000045 0.000119 -53.038280 30.738150 -96.875023 0.000137
[Rope1_Seg02]
28 139.999863 -0.000179 0.000000 24.091354 -14.434419 -5.672596 139.999863
29 139.999863 -0.000179 0.000000 20.842793 -16.028210 -1.071262 139.999863
[Rope1_Seg03]
28 139.999924 0.000060 -0.000060 14.558970 -9.488913 -5.156074 139.999924
29 139.999924 0.000060 -0.000060 13.075019 -9.685833 -3.763842 139.999924
[Rope1_Seg04]
28 139.999924 -0.000060 -0.000119 -4.998460 0.347212 6.207288 139.999924
29 139.999924 -0.000060 -0.000119 -4.153477 -0.439504 6.142396 139.999924
[Rope1_Seg05]
28 139.999832 0.000119 -0.000060 -12.288591 6.267335 14.781301 139.999832
29 139.999832 0.000119 -0.000060 -11.223896 5.592935 14.455455 139.999832
[Rope1_Seg06]
28 139.999954 0.000119 -0.000060 -5.544786 1.604047 10.571184 139.999954
29 139.999954 0.000119 -0.000060 -5.714342 1.925594 11.389897 139.999954
[Rope1_Seg07]
28 139.999985 0.000060 0.000000 -2.254421 0.045602 6.003788 139.999985
29 139.999985 0.000060 0.000000 -2.033193 0.010675 5.806153 139.999985
[Rope1_Seg09]
28 121.602913 0.000119 -0.000089 -89.793175 -1.359789 0.847147 121.602913
29 121.602913 0.000119 -0.000089 -89.793175 -1.359789 0.847147 121.602913
[L_mid_hand01]
28 103.859421 1.038730 8.195221 109.056198 -40.604706 -13.201404 104.187431
29 103.859421 1.038730 8.195221 109.056198 -40.604698 -13.201401 104.187431
[L_mid_hand02]
28 105.572853 -4.139662 -10.864139 -146.713593 31.476528 -37.902313 106.211075
29 105.572853 -4.139662 -10.864139 -146.713593 31.476517 -37.902306 106.211075
[L_mid_hand03]
28 104.641464 17.579376 -3.913581 -14.267233 12.322316 43.898396 106.179977
29 104.641464 17.579376 -3.913581 -14.267233 12.322316 43.898396 106.179977
[null_rope02_connect]
28 328.732849 0.000179 -0.000119 -133.491806 52.659016 -13.772704 328.732849
29 328.732849 0.000179 -0.000119 -134.271606 54.236946 -15.681570 328.732849
[Rope2_Seg01]
28 0.000062 0.000105 0.000029 25.719816 0.598775 -43.059311 0.000125
29 0.000066 0.000106 0.000025 28.863014 -0.369146 -44.182823 0.000127
[Rope2_Seg02]
28 139.999741 -0.000060 -0.000119 8.426160 2.447444 -3.563651 139.999756
29 139.999741 -0.000060 -0.000119 9.345544 2.201021 -3.943631 139.999756
[Rope2_Seg03]
28 140.000107 0.000030 0.000000 11.725275 2.249029 -3.621884 140.000107
29 140.000107 0.000030 0.000000 10.257400 2.171154 -3.523966 140.000107
[Rope2_Seg04]
28 139.999802 0.000000 -0.000060 20.120392 2.270937 -4.148182 139.999802
29 139.999802 0.000000 -0.000060 13.501837 2.038141 -3.438623 139.999802
[Rope2_Seg05]
28 139.999985 -0.000060 0.000119 8.057379 -2.655313 -0.433364 139.999985
29 139.999985 -0.000060 0.000119 15.173566 -4.577126 -1.861631 139.999985
[Rope2_Seg06]
28 139.999893 -0.000030 -0.000119 -2.996441 -3.626313 2.457768 139.999893
29 139.999893 -0.000030 -0.000119 4.516333 -5.932403 0.922318 139.999893
[Rope2_Seg07]
28 139.999893 0.000060 -0.000060 0.587906 -2.034763 0.693625 139.999893
29 139.999893 0.000060 -0.000060 2.503614 -3.090945 0.245868 139.999893
[Rope2_Seg09]
28 121.338966 0.000089 -0.000060 33.793236 -1.359788 -0.847141 121.338966
29 121.338966 0.000089 -0.000060 33.793236 -1.359788 -0.847141 121.338966
[R_mid_hand01]
28 104.680779 11.144459 -10.335981 -37.204067 31.906805 37.576252 105.778534
29 104.680779 11.144459 -10.335981 -37.204067 31.906805 37.576252 105.778534
[R_mid_hand02]
28 104.070427 2.443552 8.231699 70.367462 -42.427391 14.067809 104.424065
29 104.070427 2.443552 8.231699 70.367462 -42.427391 14.067809 104.424065
[R_mid_hand03]
28 106.028137 -11.221827 -5.996406 -169.893616 12.226658 -47.211010 106.788818
29 106.028137 -11.221827 -5.996406 -169.893616 12.226661 -47.211018 106.788818
[spine02]
28 129.756927 0.001550 0.000119 0.169063 -4.058376 -10.240792 129.756927
29 129.756927 0.001550 0.000119 0.190239 -4.057577 -10.540221 129.756927
[spine03]
28 78.614075 0.082331 -4.898992 1.783091 3.885274 14.804052 78.766617
29 78.614075 0.082270 -4.898993 1.795602 3.879539 14.990294 78.766617
[pelvis]
28 169.435242 0.051022 0.000000 -0.047770 -0.183366 10.722937 169.435257
29 169.435242 0.051022 0.000000 -0.048987 -0.182963 11.100094 169.435257
[null_rope03_connect]
28 -1.257226 -2.466202 137.391083 34.142338 -76.506317 35.035316 137.418976
29 -1.257226 -2.466202 137.391083 34.537266 -77.881981 33.410812 137.418976
[null_rope04_connect]
28 -1.259640 -2.480268 -137.844437 34.142338 -76.506317 35.035316 137.872513
29 -1.259640 -2.480268 -137.844437 34.537266 -77.881981 33.410812 137.872513
[Rope3_Seg01]
28 0.000010 0.000038 -0.000114 -130.614136 -0.063227 -79.994492 0.000121
29 0.000010 0.000038 -0.000114 -130.764191 2.899047 -80.555656 0.000121
[Rope3_Seg02]
28 139.999924 -0.000119 0.000060 0.098171 -1.381375 -2.465319 139.999924
29 139.999924 -0.000119 0.000060 0.100676 -1.460554 -2.334342 139.999924
[Rope3_Seg03]
28 139.999924 -0.000119 0.000119 0.092828 -1.653391 -2.888567 139.999924
29 139.999924 -0.000119 0.000119 0.103235 -1.742250 -2.775033 139.999924
[Rope3_Seg04]
28 139.999924 0.000119 0.000000 0.342534 -4.979388 1.268934 139.999924
29 139.999924 0.000119 0.000000 0.253498 -5.060766 0.574619 139.999924
[Rope3_Seg05]
28 139.999924 -0.000238 0.000060 -0.729006 0.207277 -8.990414 139.999924
29 139.999924 -0.000238 0.000060 -0.366776 -0.498485 -7.584119 139.999924
[Rope3_Seg06]
28 139.999893 -0.000119 -0.000060 -5.721008 7.251225 -16.811203 139.999893
29 139.999893 -0.000119 -0.000060 -4.550486 7.305962 -14.849984 139.999893
[Rope3_Seg07]
28 139.999771 0.000060 -0.000119 -3.068403 3.702940 -7.512926 139.999771
29 139.999771 0.000060 -0.000119 -2.391686 3.694389 -6.874906 139.999771
[Rope3_Seg08]
28 139.999985 -0.000060 0.000000 -1.473268 1.957535 -3.768913 139.999985
29 139.999985 -0.000060 0.000000 -1.043634 1.840635 -3.458405 139.999985
[Rope3_Seg09]
28 90.185997 -0.000179 -0.000060 89.793228 -1.359877 -0.847183 90.185997
29 90.185997 -0.000179 -0.000060 89.793228 -1.359877 -0.847183 90.185997
[R_rear_hand01]
28 103.366196 -6.073594 -10.757982 -164.755127 19.627697 -40.352161 104.101845
29 103.366196 -6.073594 -10.757982 -164.755127 19.627697 -40.352161 104.101845
[R_rear_hand02]
28 100.509819 12.039542 -7.992327 -30.792652 24.782448 38.141541 101.543350
29 100.509819 12.039542 -7.992327 -30.792652 24.782448 38.141541 101.543350
[R_rear_hand03]
28 101.539970 5.215704 5.435467 82.448349 -41.048256 8.840378 101.819031
29 101.539970 5.215704 5.435467 82.448349 -41.048256 8.840378 101.819031
[Rope4_Seg01]
28 -0.000012 -0.000019 -0.000153 49.323833 5.125620 -98.485695 0.000154
29 -0.000012 -0.000017 -0.000153 49.604710 8.242380 -98.528305 0.000154
[Rope4_Seg02]
28 139.999985 0.000060 0.000119 -0.362530 -3.046027 3.272115 139.999985
29 139.999985 0.000060 0.000119 -0.363406 -1.942741 3.144242 139.999985
[Rope4_Seg03]
28 139.999924 0.000000 -0.000238 -0.485006 -4.898332 5.464773 139.999924
29 139.999924 0.000000 -0.000238 -0.598773 -3.160425 5.066401 139.999924
[Rope4_Seg04]
28 139.999985 0.000000 0.000119 -2.688662 -8.397311 23.418358 139.999985
29 139.999985 0.000000 0.000119 -3.778452 -3.683749 23.398861 139.999985
[Rope4_Seg05]
28 139.999802 -0.000060 -0.000119 1.250857 -16.962751 -23.692385 139.999802
29 139.999802 -0.000060 -0.000119 2.892644 -17.521946 -20.168463 139.999802
[Rope4_Seg06]
28 139.999924 0.000000 0.000060 -6.779553 -5.413311 -17.626123 139.999924
29 139.999924 0.000000 0.000060 -4.559231 -7.031736 -19.281689 139.999924
[Rope4_Seg07]
28 139.999802 0.000000 0.000000 -2.917737 -1.974385 -5.620802 139.999802
29 139.999802 0.000000 0.000000 -2.087566 -2.410472 -5.448354 139.999802
[Rope4_Seg08]
28 139.999924 0.000000 0.000119 -3.315870 -0.870916 -2.957052 139.999924
29 139.999924 0.000000 0.000119 -2.825620 -1.122134 -2.825622 139.999924
[Rope4_Seg09]
28 90.185791 0.000060 0.000060 -135.617828 2.228885 0.850567 90.185791
29 90.185791 0.000060 0.000060 -135.617828 2.228885 0.850567 90.185791
[L_rear_hand01]
28 101.696655 -8.392275 -7.654577 -31.684452 -23.583008 144.025742 102.329041
29 101.696655 -8.392275 -7.654577 -31.684452 -23.583008 144.025742 102.329041
[L_rear_hand02]
28 102.726799 -1.568258 5.773216 82.701553 38.753956 171.553619 102.900848
29 102.726799 -1.568258 5.773216 82.701553 38.753956 171.553619 102.900848
[L_rear_hand03]
28 104.552910 9.721220 -10.420293 -163.975388 -19.004416 -142.009323 105.519653
29 104.552910 9.721220 -10.420293 -163.975403 -19.004421 -142.009338 105.519653
